# xmcd
#
# Track frame offsets:
#	150
#	11164
#	20377
#	30799
#	41018
#	52509
#	66266
#	76462
#	87660
#	99498
#	110049
#	120912
#	130000
#	141652
#	150986
#	161945
#	171082
#	181674
#	193381
#	203526
#
# Disc length: 2861 seconds
#
# Revision: 1
# Processed by: cddbd v1.5.2PL0 Copyright (c) Steve Scherf et al.
# Submitted via: audiograbber 1.83.01
#
DISCID=030b2b14
DTITLE=Rock n Roll Cowboys - CD2
DYEAR=2014
DGENRE=Country
TTITLE0=Buck Owens - Above and Beyond
TTITLE1=Sonny James - A Mighty Loveable Man
TTITLE2=Johnny Horton - I´m Ready If You`ve Willing
TTITLE3=Rusty and Doug Kershaw - So Levely Baby
TTITLE4=Charlie Ryan - Hot Red Lincoln
TTITLE5=Marty Robbins - Respectable Miss Brooks
TTITLE6=George Jones - Why Baby why
TTITLE7=Johnny Cash - Mean Eyed Cat
TTITLE8=Marvin Rainwater - Get off the steel
TTITLE9=Cowboy Copas - Alabam
TTITLE10=Don Gibson - Who Cares
TTITLE11=Roger Miller - You Don`t want my love
TTITLE12=Tennessee Ernie Ford and Ella Mae Morse - Hag-Tied Over you
TTITLE13=Ronnie Murray - Train Train
TTITLE14=Red Foley - Rock n Rollin`
TTITLE15=Lewis Pruitt - Crazy Bullfrog
TTITLE16=Willma Lee Cooper and Stoney Cooper - There`s a Big Wheel
TTITLE17=Johnny Horton - The Battle of Bull Run
TTITLE18=Tommy Melson - Habe Bap
TTITLE19=Bob Luman - Oh Lonesome Me
EXTD=
EXTT0=
EXTT1=
EXTT2=
EXTT3=
EXTT4=
EXTT5=
EXTT6=
EXTT7=
EXTT8=
EXTT9=
EXTT10=
EXTT11=
EXTT12=
EXTT13=
EXTT14=
EXTT15=
EXTT16=
EXTT17=
EXTT18=
EXTT19=
PLAYORDER=
